<?xml version="1.0" encoding="utf-8"?>
<!-- Generator: Adobe Illustrator 24.2.1, SVG Export Plug-In . SVG Version: 6.00 Build 0)  -->
<svg version="1.1" id="レイヤー_1" xmlns="http://www.w3.org/2000/svg" xmlns:xlink="http://www.w3.org/1999/xlink" x="0px"
	 y="0px" viewBox="0 0 500 500" style="enable-background:new 0 0 500 500;" xml:space="preserve">
<style type="text/css">
	.st0{fill:#FF26BE;}
	.st1{fill:#2E001F;}
	.st2{fill:#FFD9F2;}
</style>
<g>
	<path class="st0" d="M411.46,493.75H88.54C39.58,493.75,0,454.17,0,405.21V94.79C0,45.83,39.58,6.25,88.54,6.25h322.92
		c48.96,0,88.54,39.58,88.54,88.54v310.42C500,454.17,460.42,493.75,411.46,493.75z"/>
	<path class="st1" d="M403.54,472.91H96.46c-41.66,0-75.62-33.96-75.62-75.62V102.71c0-41.66,33.96-75.62,75.62-75.62h306.88
		c41.88,0,75.62,33.96,75.62,75.62v294.38C479.16,438.95,445.2,472.91,403.54,472.91L403.54,472.91z"/>
	<path class="st2" d="M197.7,234.37l58.34,112.08c1.04,1.66,0.42,3.34-1.26,3.34h-36.26c-2.3,0-3.34-0.62-4.38-2.7
		c-13.34-27.5-26.88-55-40.84-84.58h-0.42c-12.5,27.92-26.26,57.3-39.58,84.8c-1.04,1.66-2.08,2.3-3.76,2.3H95.2
		c-2.08,0-2.3-1.66-1.24-2.92l57.08-108.76l-55.2-110c-1.26-1.66,0-2.92,1.24-2.92h35.84c2.08,0,2.92,0.42,3.74,2.3
		c13.12,27.5,26.46,55.84,38.96,83.54h0.42c12.08-27.5,25.42-56.04,38.34-83.34c1.04-1.66,1.66-2.7,3.76-2.7h33.54
		c1.66,0,2.3,1.26,1.26,2.92L197.7,234.37z M266.26,268.33c0-48.54,32.3-86.46,83.54-86.46c4.38,0,6.66,0,10.84,0.42v-55.2
		c0-1.26,1.04-2.08,2.08-2.08h32.92c1.66,0,2.08,0.62,2.08,1.66v191.26c0,5.62,0,12.7,1.04,20.42c0,1.26-0.42,1.66-1.66,2.3
		c-17.5,8.34-35.84,12.08-53.34,12.08C298.54,352.91,266.24,325.01,266.26,268.33L266.26,268.33z M360.62,215.01
		c-2.92-1.26-7.08-2.08-12.08-2.08c-26.26,0-44.58,20.2-44.58,53.76c0,38.34,18.76,53.76,42.3,53.76c5,0,10.42-0.62,14.38-2.3
		V215.01H360.62z"/>
</g>
</svg>
