<?xml version="1.0" encoding="utf-8"?>
<!-- Generator: Adobe Illustrator 24.2.1, SVG Export Plug-In . SVG Version: 6.00 Build 0)  -->
<svg version="1.1" id="レイヤー_1" xmlns="http://www.w3.org/2000/svg" xmlns:xlink="http://www.w3.org/1999/xlink" x="0px"
	 y="0px" viewBox="0 0 500 500" style="enable-background:new 0 0 500 500;" xml:space="preserve">
<style type="text/css">
	.st0{fill:#0ACF83;}
	.st1{fill:#A259FF;}
	.st2{fill:#F24E1E;}
	.st3{fill:#FF7262;}
	.st4{fill:#1ABCFE;}
</style>
<g>
	<path id="path0_fill" class="st0" d="M166.67,500c46,0,83.33-37.33,83.33-83.33v-83.33h-83.33c-46,0-83.33,37.33-83.33,83.33
		S120.67,500,166.67,500z"/>
	<path id="path1_fill" class="st1" d="M83.33,250c0-46,37.33-83.33,83.33-83.33H250v166.67h-83.33
		C120.67,333.33,83.33,296,83.33,250z"/>
	<path id="path1_fill_1_" class="st2" d="M83.33,83.33c0-46,37.33-83.33,83.33-83.33H250v166.67h-83.33
		C120.67,166.67,83.33,129.33,83.33,83.33z"/>
	<path id="path2_fill" class="st3" d="M250,0h83.33c46,0,83.33,37.33,83.33,83.33s-37.33,83.33-83.33,83.33H250V0z"/>
	<path id="path3_fill" class="st4" d="M416.67,250c0,46-37.33,83.33-83.33,83.33S250,296,250,250s37.33-83.33,83.33-83.33
		S416.67,204,416.67,250z"/>
</g>
</svg>
