<?xml version="1.0" encoding="utf-8"?>
<!-- Generator: Adobe Illustrator 24.2.1, SVG Export Plug-In . SVG Version: 6.00 Build 0)  -->
<svg version="1.1" id="レイヤー_1" xmlns="http://www.w3.org/2000/svg" xmlns:xlink="http://www.w3.org/1999/xlink" x="0px"
	 y="0px" viewBox="0 0 500 500" style="enable-background:new 0 0 500 500;" xml:space="preserve">
<style type="text/css">
	.st0{fill:#CF649A;}
</style>
<g>
	<path class="st0" d="M430.42,277.82c-17.48,0.1-32.62,4.3-45.32,10.55c-4.69-9.28-9.38-17.39-10.16-23.44
		c-0.88-7.03-1.95-11.33-0.88-19.73c1.07-8.4,5.96-20.32,5.96-21.29c-0.1-0.88-1.08-5.18-11.13-5.27s-18.75,1.95-19.73,4.59
		c-0.98,2.64-2.93,8.69-4.2,14.94c-1.76,9.18-20.12,41.7-30.57,58.79c-3.42-6.64-6.35-12.5-6.94-17.19
		c-0.88-7.03-1.95-11.33-0.88-19.73c1.07-8.4,5.96-20.31,5.96-21.29c-0.1-0.88-1.07-5.18-11.13-5.27
		c-10.06-0.1-18.75,1.95-19.73,4.59c-0.98,2.64-2.05,8.89-4.2,14.94c-2.05,6.06-26.47,60.36-32.82,74.52
		c-3.22,7.23-6.05,12.99-8.11,16.9c-2.05,3.91-0.1,0.29-0.29,0.68c-1.76,3.32-2.73,5.18-2.73,5.18v0.1
		c-1.37,2.44-2.83,4.78-3.52,4.78c-0.49,0-1.46-6.54,0.2-15.53c3.61-18.85,12.4-48.25,12.31-49.32c0-0.49,1.66-5.67-5.67-8.3
		c-7.13-2.64-9.67,1.76-10.25,1.76c-0.59,0-1.07,1.56-1.07,1.56s7.91-33.11-15.14-33.11c-14.45,0-34.38,15.72-44.24,30.08
		c-6.25,3.42-19.53,10.64-33.6,18.36c-5.37,2.93-10.94,6.06-16.21,8.89l-1.07-1.17c-27.93-29.79-79.6-50.88-77.45-90.93
		c0.78-14.55,5.86-52.93,99.23-99.42c76.47-38.09,137.71-27.64,148.35-4.39c15.14,33.21-32.72,94.93-112.22,103.82
		c-30.28,3.42-46.2-8.3-50.2-12.7c-4.2-4.59-4.79-4.79-6.35-3.91c-2.54,1.37-0.98,5.47,0,7.91c2.34,6.15,12.11,17.09,28.71,22.56
		c14.55,4.79,50.1,7.42,93.07-9.18c48.15-18.65,85.75-70.42,74.71-113.68c-11.23-44.05-84.28-58.5-153.33-33.99
		c-41.12,14.65-85.65,37.5-117.69,67.49C4.02,177.52-2.04,208.58,0.5,221.47c8.89,46,72.27,75.98,97.66,98.15
		c-1.27,0.68-2.44,1.37-3.52,1.95c-12.7,6.25-61.04,31.55-73.15,58.3c-13.67,30.28,2.15,52.06,12.7,54.99
		c32.62,9.08,66.02-7.23,84.09-34.08c17.97-26.86,15.82-61.72,7.52-77.64l-0.29-0.59l9.96-5.86c6.45-3.81,12.8-7.32,18.36-10.35
		c-3.12,8.5-5.37,18.56-6.54,33.21c-1.37,17.19,5.66,39.46,14.94,48.25c4.1,3.81,8.99,3.91,12.01,3.91c10.74,0,15.63-8.89,21-19.53
		c6.64-12.99,12.5-28.03,12.5-28.03s-7.32,40.73,12.7,40.73c7.32,0,14.65-9.47,17.97-14.36v0.1c0,0,0.2-0.29,0.59-0.98
		c0.41-0.61,0.8-1.22,1.17-1.85v-0.2c2.93-5.08,9.47-16.7,19.24-35.94c12.6-24.81,24.71-55.86,24.71-55.86s1.17,7.62,4.79,20.12
		c2.15,7.42,6.84,15.53,10.45,23.44c-2.93,4.1-4.69,6.45-4.69,6.45l0.1,0.1c-2.34,3.13-4.98,6.45-7.71,9.77
		c-9.96,11.92-21.88,25.49-23.44,29.4c-1.86,4.59-1.46,8.01,2.15,10.74c2.64,1.95,7.32,2.34,12.31,1.95
		c8.99-0.59,15.24-2.83,18.36-4.2c4.88-1.76,10.45-4.39,15.82-8.3c9.77-7.23,15.72-17.48,15.14-31.15
		c-0.29-7.52-2.73-14.94-5.76-21.97c0.88-1.27,1.76-2.54,2.64-3.91c15.43-22.56,27.35-47.37,27.35-47.37s1.17,7.62,4.79,20.12
		c1.85,6.35,5.57,13.28,8.89,20.12c-14.45,11.82-23.54,25.49-26.66,34.48c-5.76,16.6-1.27,24.12,7.23,25.88
		c3.81,0.78,9.28-0.98,13.38-2.73c5.08-1.66,11.23-4.49,16.9-8.69c9.77-7.23,19.14-17.29,18.65-30.86
		c-0.29-6.25-1.95-12.4-4.2-18.26c12.31-5.08,28.22-8.01,48.44-5.57c43.46,5.08,52.06,32.23,50.4,43.56
		c-1.66,11.33-10.74,17.58-13.77,19.53c-3.03,1.86-4,2.54-3.71,3.91c0.39,2.05,1.76,1.95,4.39,1.56
		c3.61-0.59,22.85-9.28,23.63-30.18C501.13,306.83,475.64,277.53,430.42,277.82L430.42,277.82z M95.24,390.82
		c-14.36,15.72-34.57,21.68-43.17,16.6c-9.28-5.37-5.67-28.52,12.01-45.22c10.74-10.16,24.71-19.53,33.89-25.3
		c2.05-1.27,5.18-3.12,8.89-5.37c0.59-0.39,0.98-0.59,0.98-0.59c0.68-0.39,1.46-0.88,2.25-1.37
		C116.63,353.41,110.38,374.31,95.24,390.82L95.24,390.82z M200.23,319.42c-4.98,12.21-15.53,43.56-21.88,41.8
		c-5.47-1.46-8.79-25.2-1.08-48.64c3.91-11.82,12.21-25.88,17.09-31.35c7.91-8.79,16.51-11.72,18.65-8.11
		C215.56,277.82,203.35,311.81,200.23,319.42z M286.86,360.83c-2.15,1.08-4.1,1.86-4.98,1.27c-0.68-0.39,0.88-1.86,0.88-1.86
		s10.84-11.62,15.14-16.99c2.44-3.12,5.37-6.74,8.5-10.84v1.17C306.39,347.65,292.91,357.03,286.86,360.83L286.86,360.83z
		 M353.66,345.6c-1.56-1.17-1.37-4.79,3.91-16.11c2.05-4.49,6.74-12.01,14.85-19.14c0.98,2.93,1.56,5.76,1.46,8.4
		C373.78,336.32,361.28,342.86,353.66,345.6z"/>
</g>
</svg>
