<?xml version="1.0" encoding="utf-8"?>
<!-- Generator: Adobe Illustrator 24.2.1, SVG Export Plug-In . SVG Version: 6.00 Build 0)  -->
<svg version="1.1" id="レイヤー_1" xmlns="http://www.w3.org/2000/svg" xmlns:xlink="http://www.w3.org/1999/xlink" x="0px"
	 y="0px" viewBox="0 0 500 500" style="enable-background:new 0 0 500 500;" xml:space="preserve">
<style type="text/css">
	.st0{fill:#131313;}
	.st1{fill:#1572B6;}
	.st2{fill:#33A9DC;}
	.st3{fill:#FFFFFF;}
	.st4{fill:#EBEBEB;}
</style>
<g>
	<path class="st0" d="M350.47,18.5h-29.38l30.56,33.18v15.78h-62.97V48.98h30.56L288.68,15.8V0h61.8L350.47,18.5z M276.18,18.5
		h-29.42l30.6,33.18v15.78h-62.99V48.98h30.56L214.38,15.8V0h61.8V18.5z M202.62,19.26h-31.7v28.96h31.7v19.26h-54.26V0h54.26V19.26
		z"/>
	<path class="st1" d="M105.13,459.86L72.89,98.29h354.23L394.83,459.8L249.78,500L105.13,459.86z"/>
	<path class="st2" d="M250,469.28l117.21-32.5l27.56-308.92H250L250,469.28z"/>
	<path class="st3" d="M250,258.84h58.68l4.04-45.4H250v-44.32h111.21l-1.06,11.9l-10.9,122.21H250L250,258.84z"/>
	<path class="st4" d="M250.24,374.01h-0.2l-49.38-13.34l-3.16-35.36h-44.48l6.22,69.63l90.85,25.28h0.26v-46.2L250.24,374.01z"/>
	<path class="st3" d="M304.92,301.28l-5.34,59.34l-49.46,13.34v46.2l90.91-25.2l0.66-7.5l7.72-86.21h-44.48L304.92,301.28z"/>
	<path class="st4" d="M250.16,169.11v44.34H143.07l-0.92-9.96l-2.02-22.48l-1.06-11.9L250.16,169.11z M250,258.84v44.34h-48.82
		l-0.86-9.96l-2.02-22.48l-1.06-11.9h52.74L250,258.84z"/>
</g>
</svg>
