<?xml version="1.0" encoding="utf-8"?>
<!-- Generator: Adobe Illustrator 24.2.1, SVG Export Plug-In . SVG Version: 6.00 Build 0)  -->
<svg version="1.1" id="レイヤー_1" xmlns="http://www.w3.org/2000/svg" xmlns:xlink="http://www.w3.org/1999/xlink" x="0px"
	 y="0px" viewBox="0 0 500 500" style="enable-background:new 0 0 500 500;" xml:space="preserve">
<style type="text/css">
	.st0{fill:#E44D26;}
	.st1{fill:#F16529;}
	.st2{fill:#EBEBEB;}
	.st3{fill:#FFFFFF;}
</style>
<g>
	<path class="st0" d="M427.12,98.26l-32.27,361.52L249.78,500l-144.66-40.16L72.88,98.26H427.12L427.12,98.26z"/>
	<path class="st1" d="M250,469.26l117.22-32.5l27.58-308.94H250V469.26z"/>
	<path class="st2" d="M187.27,216.52H250v-44.35H138.8l1.06,11.9l10.9,122.21H250v-44.35h-58.68L187.27,216.52z M197.26,328.45
		h-44.52l6.21,69.63l90.84,25.22l0.2-0.06V377.1l-0.19,0.05l-49.39-13.34L197.26,328.45L197.26,328.45z"/>
	<path d="M105.84,0h22.54v22.27h20.62V0h22.54v67.43h-22.54V44.85h-20.62v22.58h-22.54L105.84,0L105.84,0z M201.16,22.36h-19.84V0
		h62.23v22.36h-19.85v45.07h-22.54L201.16,22.36L201.16,22.36L201.16,22.36z M253.43,0h23.5l14.45,23.69L305.82,0h23.51v67.43
		h-22.44V34.01l-15.5,23.97h-0.39l-15.51-23.97v33.42h-22.05V0z M340.55,0h22.54v45.14h31.69v22.29h-54.24L340.55,0L340.55,0z"/>
	<path class="st3" d="M249.85,306.28h54.61l-5.15,57.51l-49.46,13.35v46.14l90.91-25.2l0.67-7.49l10.42-116.75l1.08-11.91H249.85
		V306.28L249.85,306.28z M249.85,216.41v0.11h107.12l0.89-9.97l2.02-22.48l1.06-11.9H249.85V216.41L249.85,216.41z"/>
</g>
</svg>
