<?xml version="1.0" encoding="utf-8"?>
<!-- Generator: Adobe Illustrator 24.2.1, SVG Export Plug-In . SVG Version: 6.00 Build 0)  -->
<svg version="1.1" id="レイヤー_1" xmlns="http://www.w3.org/2000/svg" xmlns:xlink="http://www.w3.org/1999/xlink" x="0px"
	 y="0px" viewBox="0 0 500 500" style="enable-background:new 0 0 500 500;" xml:space="preserve">
<style type="text/css">
	.st0{fill:url(#SVGID_1_);}
	.st1{fill:#31C5F0;}
</style>
<g>
	
		<radialGradient id="SVGID_1_" cx="-183.1388" cy="172.5551" r="0.76" gradientTransform="matrix(458.3335 0 0 -455.1277 84110.4531 78658.4453)" gradientUnits="userSpaceOnUse">
		<stop  offset="0" style="stop-color:#34364E;stop-opacity:0.98"/>
		<stop  offset="1" style="stop-color:#0C0824"/>
	</radialGradient>
	<path class="st0" d="M20.83,21.37h458.33v457.26H20.83V21.37z"/>
	<path class="st1" d="M20.83,21.37h458.33v457.26H20.83V21.37z M0,500h500V0H0V500z M337.08,205.13c-16.46,0-22.08,8.55-22.08,15.6
		c0,7.69,3.75,13.03,25.83,24.79c32.71,16.24,42.92,31.84,42.92,54.7c0,34.19-25.42,52.56-59.79,52.56
		c-18.13,0-33.75-3.85-42.71-9.19c-1.46-0.64-1.67-1.71-1.67-3.42v-31.41c0-2.14,1.04-2.78,2.5-1.71
		c13.12,8.76,28.12,12.61,41.87,12.61c16.46,0,23.33-7.05,23.33-16.67c0-7.69-4.79-14.53-25.83-25.64
		c-29.58-14.53-41.87-29.27-41.87-53.85c0-27.56,21.04-50.43,57.5-50.43c17.92,0,30.42,2.78,37.29,5.98
		c1.67,1.07,2.08,2.78,2.08,4.27v29.27c0,1.71-1.04,2.78-3.13,2.14C364.17,208.76,350.62,205.13,337.08,205.13L337.08,205.13z
		 M157.92,230.56c4.79,0.43,8.54,0.43,16.88,0.43c24.38,0,47.29-8.76,47.29-42.73c0-27.14-16.46-40.81-44.17-40.81
		c-8.33,0-16.25,0.43-20,0.64V230.56z M120.83,117.09c0-1.5,2.92-2.56,4.58-2.56c13.33-0.64,33.13-1.07,53.75-1.07
		c57.71,0,80.21,32.48,80.21,73.93c0,54.27-38.33,77.56-85.42,77.56c-7.92,0-10.62-0.43-16.25-0.43v82.05c0,1.71-0.62,2.56-2.5,2.56
		h-31.87c-1.67,0-2.5-0.64-2.5-2.56L120.83,117.09L120.83,117.09z"/>
</g>
</svg>
