<?xml version="1.0" encoding="utf-8"?>
<!-- Generator: Adobe Illustrator 24.2.1, SVG Export Plug-In . SVG Version: 6.00 Build 0)  -->
<svg version="1.1" id="レイヤー_1" xmlns="http://www.w3.org/2000/svg" xmlns:xlink="http://www.w3.org/1999/xlink" x="0px"
	 y="0px" viewBox="0 0 500 500" style="enable-background:new 0 0 500 500;" xml:space="preserve">
<style type="text/css">
	.st0{fill:url(#SVGID_1_);}
	.st1{fill:#FF7F18;}
</style>
<g>
	
		<radialGradient id="SVGID_1_" cx="-182.8328" cy="172.3376" r="0.76" gradientTransform="matrix(458.3335 0 0 -455.1277 83970.2109 78559.4453)" gradientUnits="userSpaceOnUse">
		<stop  offset="0" style="stop-color:#423325;stop-opacity:0.98"/>
		<stop  offset="1" style="stop-color:#1C0A00"/>
	</radialGradient>
	<path class="st0" d="M20.83,21.37h458.33v457.26H20.83V21.37z"/>
	<path class="st1" d="M20.83,21.37h458.33v457.26H20.83V21.37z M0,500h500V0H0V500z M327.5,178.21c0-1.71,0.62-2.56,2.5-2.56h32.71
		c1.67,0,2.5,0.64,2.5,2.56V346.8c0,1.71-0.42,2.56-2.5,2.56h-32.29c-2.08,0-2.71-1.07-2.71-2.78V178.2L327.5,178.21L327.5,178.21z
		 M325.21,129.7c0-13.68,9.37-21.79,21.25-21.79c12.71,0,21.25,8.76,21.25,21.79c0,14.1-8.96,21.79-21.67,21.79
		C333.96,151.5,325.21,143.8,325.21,129.7z M231.46,248.5c-5.83-23.72-19.58-75.43-24.79-100.43h-0.42
		c-4.38,25-15.42,67.31-24.17,100.43H231.46z M173.54,283.12l-16.46,64.1c-0.42,1.71-1.04,2.14-3.12,2.14h-30.63
		c-2.08,0-2.5-0.64-2.08-3.2l59.17-212.39c1.04-3.85,1.67-7.26,2.08-17.73c0-1.5,0.62-2.14,1.67-2.14h43.75
		c1.46,0,2.08,0.43,2.5,2.14l66.25,230.56c0.42,1.71,0,2.78-1.67,2.78h-34.58c-1.67,0-2.71-0.43-3.12-1.92l-17.08-64.32H173.54
		L173.54,283.12z"/>
</g>
</svg>
